<?xml version="1.0" standalone="no"?>
<!DOCTYPE svg PUBLIC "-//W3C//DTD SVG 20010904//EN"
 "http://www.w3.org/TR/2001/REC-SVG-20010904/DTD/svg10.dtd">
<svg version="1.0" xmlns="http://www.w3.org/2000/svg"
 width="600.000000pt" height="568.000000pt" viewBox="0 0 600.000000 568.000000"
 preserveAspectRatio="xMidYMid meet">

<g transform="translate(0.000000,568.000000) scale(0.100000,-0.100000)"
fill="#000000" stroke="none">
<path d="M1995 5621 c-6 -5 -68 -39 -140 -76 -71 -37 -170 -89 -220 -115 -49
-26 -187 -98 -305 -160 -118 -62 -298 -156 -400 -210 -102 -53 -248 -130 -325
-170 -77 -40 -171 -89 -210 -110 -38 -20 -112 -59 -162 -85 -51 -26 -97 -53
-103 -60 -7 -8 -9 -601 -8 -1785 l3 -1773 90 -46 c173 -90 404 -210 467 -244
34 -19 126 -67 203 -107 137 -71 238 -124 420 -220 142 -75 289 -152 430 -225
72 -37 162 -85 201 -106 39 -22 74 -39 78 -39 3 0 6 1246 6 2770 0 1524 -4
2770 -8 2770 -4 0 -12 -4 -17 -9z m-608 -1598 c53 -24 73 -43 73 -68 0 -13
-25 -75 -55 -139 l-55 -117 -34 35 c-29 31 -40 36 -80 36 -25 0 -46 2 -46 4 0
16 115 242 128 252 22 17 24 17 69 -3z m-90 -305 c46 -42 64 8 -234 -633 -110
-236 -274 -587 -363 -780 -90 -192 -167 -354 -173 -360 -6 -7 -11 -5 -15 4 -3
8 -17 25 -31 39 -20 19 -34 23 -68 20 -24 -2 -43 -1 -43 2 0 5 242 528 482
1040 17 36 56 121 88 190 32 69 86 184 120 255 34 72 73 153 86 182 13 28 31
56 41 62 25 15 83 4 110 -21z m477 -1634 c23 -23 20 -45 -15 -92 -34 -47 -33
-66 6 -84 23 -10 37 -6 135 45 61 32 110 55 110 53 0 -13 -180 -109 -211 -113
-76 -11 -110 42 -65 101 14 19 26 44 26 56 0 19 -4 21 -27 15 -43 -10 -286
-107 -412 -164 -134 -61 -147 -58 -137 22 8 57 -4 77 -43 77 -15 0 -121 -44
-236 -99 -181 -85 -604 -271 -618 -271 -2 0 8 73 24 162 31 183 37 193 104
184 45 -5 85 -43 85 -79 0 -13 -36 -65 -89 -127 -49 -58 -88 -106 -87 -108 2
-1 50 23 107 55 175 95 621 311 671 324 41 11 52 11 82 -4 39 -18 52 -48 43
-102 l-6 -34 52 20 c61 25 328 127 407 157 67 26 75 26 94 6z"/>
<path d="M2377 5624 c-9 -10 -9 -5502 1 -5507 4 -3 25 1 47 8 22 7 87 27 145
45 58 17 123 38 145 45 22 7 74 23 115 35 41 12 86 25 100 30 14 5 72 23 130
40 259 78 375 113 445 136 22 7 132 41 245 74 113 34 225 67 250 75 25 8 92
29 150 46 58 17 122 38 143 45 20 8 46 14 57 14 20 0 20 9 20 706 0 668 -1
706 -17 701 -17 -5 -760 -312 -1042 -431 -139 -58 -197 -68 -256 -46 -44 17
-614 400 -625 420 -7 14 -6 23 6 34 8 9 18 16 22 16 7 0 89 15 375 65 75 14
199 36 275 49 75 14 202 36 282 51 268 47 319 49 461 16 25 -5 83 -17 130 -25
46 -9 149 -29 229 -46 80 -16 148 -30 153 -30 4 0 7 648 7 1440 0 1189 -2
1440 -13 1440 -8 0 -366 101 -798 224 -431 122 -793 226 -804 229 -11 3 -60
17 -110 31 -49 14 -124 36 -165 47 -41 12 -80 24 -86 26 -5 2 -13 0 -17 -3z
m702 -2358 c512 -85 567 -96 583 -116 17 -20 18 -50 18 -366 0 -318 -1 -345
-18 -362 -18 -18 -130 -40 -522 -102 -98 -16 -397 -66 -593 -99 -39 -7 -67 -6
-87 1 -60 21 -60 17 -60 573 l0 507 29 29 c19 19 40 29 58 29 15 0 282 -43
592 -94z"/>
<path d="M2550 2791 l0 -442 33 6 c54 9 305 44 432 60 147 19 532 74 563 80
l22 5 0 295 0 295 -22 4 c-13 3 -144 21 -293 41 -537 72 -641 86 -687 92 l-48
6 0 -442z"/>
<path d="M4670 2876 c0 -1295 3 -2026 10 -2026 5 0 29 7 52 14 24 8 61 19 83
25 37 9 59 15 195 56 118 35 158 47 205 60 28 7 73 20 100 28 28 8 91 27 140
41 84 24 121 35 328 98 l78 23 -1 539 c0 297 -2 541 -4 543 -2 2 -53 -21 -114
-52 -61 -30 -114 -55 -117 -55 -3 0 -5 22 -5 48 l0 48 120 54 c112 49 120 55
120 81 l0 28 -105 -46 c-86 -38 -107 -43 -120 -33 -16 13 -20 47 -7 67 4 7 57
32 117 56 97 40 110 48 113 71 2 14 -1 26 -5 26 -5 0 -48 -16 -96 -35 -106
-43 -124 -44 -133 -8 -11 40 5 55 102 91 49 18 99 37 112 42 l22 10 -2 947 -3
946 -50 13 c-27 7 -75 20 -105 29 -30 9 -73 21 -95 27 -22 5 -49 14 -60 19
-11 5 -38 13 -60 18 -38 9 -67 18 -197 57 -29 9 -75 22 -103 29 -48 13 -98 28
-207 61 -29 9 -75 22 -103 29 -27 8 -75 21 -105 30 -30 9 -65 19 -77 22 l-23
5 0 -2026z m303 259 c81 -13 156 -29 166 -34 26 -14 31 -32 31 -108 0 -62 1
-65 23 -61 12 3 86 20 164 38 156 37 173 35 173 -21 0 -35 -4 -37 -120 -70
-107 -30 -105 -32 49 -48 111 -11 121 -19 121 -98 l0 -53 -43 0 c-23 0 -209
11 -412 25 -204 14 -376 25 -382 25 -10 0 -13 48 -13 204 0 201 0 205 23 221
12 9 33 13 47 10 14 -2 91 -16 173 -30z m-58 -480 c229 -10 520 -25 593 -31
l72 -6 0 -198 0 -198 -82 -6 c-206 -15 -543 -36 -650 -42 l-118 -6 0 251 0
252 33 -5 c17 -3 86 -8 152 -11z m665 -583 c0 -65 -4 -104 -13 -116 -11 -15
-73 -27 -348 -66 -184 -26 -362 -51 -395 -55 -89 -10 -94 -3 -94 146 0 65 3
119 8 120 4 0 76 6 159 12 l153 13 10 -32 c16 -49 42 -57 143 -46 96 11 111
18 128 67 l12 33 86 7 c47 3 95 7 106 9 11 2 26 4 33 5 9 1 12 -25 12 -97z"/>
<path d="M3582 2069 c-56 -18 -92 -35 -89 -42 4 -13 77 -52 128 -68 33 -10 45
-7 147 36 62 26 110 51 107 55 -11 17 -117 50 -158 49 -23 0 -84 -14 -135 -30z"/>
<path d="M2654 1954 c88 -58 216 -140 284 -182 110 -66 133 -76 181 -80 31 -2
67 1 81 7 24 11 23 11 -8 8 -71 -8 -128 10 -208 65 -44 30 -95 63 -114 75 -19
11 -107 64 -194 117 -87 53 -164 96 -170 96 -6 0 61 -48 148 -106z"/>
</g>
</svg>
